<svg width="34" height="20" viewBox="0 0 34 20" fill="none" xmlns="http://www.w3.org/2000/svg">
<path fill-rule="evenodd" clip-rule="evenodd" d="M12.9223 16.4912C13.5069 15.7897 14.3728 15.3841 15.2859 15.3841H27.6897C31.0881 15.3841 33.843 12.6292 33.843 9.23088V6.15424C33.843 2.75589 31.0881 0.000976562 27.6897 0.000976562H25.2849C24.3718 0.000976562 23.5059 0.406548 22.9214 1.108L20.9206 3.50891C20.3361 4.21036 19.4702 4.61593 18.5571 4.61593H6.15327C2.75491 4.61593 0 7.37084 0 10.7692V13.8458C0 17.2442 2.75491 19.9991 6.15327 19.9991H8.55804C9.47113 19.9991 10.337 19.5935 10.9216 18.8921L12.9223 16.4912ZM29.228 6.15424C29.228 5.30466 28.5393 4.61593 27.6897 4.61593H22.9775C22.0644 4.61593 21.1985 5.0215 20.6139 5.72295L18.6132 8.12386C18.0286 8.82531 17.1627 9.23088 16.2496 9.23088H6.15327C5.30368 9.23088 4.61495 9.91961 4.61495 10.7692V13.8458C4.61495 14.6954 5.30368 15.3841 6.15327 15.3841H10.8655C11.7786 15.3841 12.6445 14.9786 13.2291 14.2771L15.2298 11.8762C15.8144 11.1748 16.6803 10.7692 17.5933 10.7692H27.6897C28.5393 10.7692 29.228 10.0805 29.228 9.23088V6.15424Z" fill="black"/>
</svg>
